# xmcd
#
# Track frame offsets: 
#        150
#        21447
#        57448
#        67511
#        94355
#        125351
#        151937
#        178932
#        196302
#        208458
#        233012
#        256419
#
# Disc length: 3897 seconds
#
# Revision: 0
# Processed by: cddbd v1.5.2PL0 Copyright (c) Steve Scherf et al.
# Submitted via: ExactAudioCopy v1.0b3
#
DISCID=a90f370c
DTITLE=Bela Fleck and The Flecktones - Rocket Science
DYEAR=2011
DGENRE=Bluegrass
TTITLE0=Gravity Lane
TTITLE1=Prickly Pear
TTITLE2=Joyful Spring
TTITLE3=Life in Eleven
TTITLE4=Falling Forward
TTITLE5=Storm Warning
TTITLE6=Like Water
TTITLE7=Earthling Parade
TTITLE8=The Secret Drawer
TTITLE9=Sweet Pomegranates
TTITLE10=Falani
TTITLE11=Bottle Rocket
EXTD=
EXTT0=
EXTT1=
EXTT2=
EXTT3=
EXTT4=
EXTT5=
EXTT6=
EXTT7=
EXTT8=
EXTT9=
EXTT10=
EXTT11=
PLAYORDER=
